<?xml version="1.0" encoding="utf-8"?>
<!-- Generator: Adobe Illustrator 27.5.0, SVG Export Plug-In . SVG Version: 6.00 Build 0)  -->
<svg version="1.1" xmlns="http://www.w3.org/2000/svg" xmlns:xlink="http://www.w3.org/1999/xlink" x="0px" y="0px"
	 viewBox="0 0 500 500" style="enable-background:new 0 0 500 500;" xml:space="preserve">
<g id="BACKGROUND">
	<rect style="fill:#FFFFFF;" width="500" height="500"/>
</g>
<g id="OBJECTS">
	<g>
		<path style="fill:#EAF0F4;" d="M102.594,218.234c-8.097,14.594-12.041,31.19-9.681,48.069
			c3.43,24.537,17.508,47.679,38.847,60.632c17.289,10.495,37.718,15.637,57.881,15.626c21.849-0.012,38.44-7.813,60.36-6.258
			c3.014,0.214,10.935,2.903,13.936,3.254c37.065,4.339,38.851-26.727,58.356-27.287c22.466-0.645,41.539-7.917,53.644-16.374
			c39.593-27.661,36.069-66.02,22.414-83.801c-18.153-23.638-50.802-32.883-79.975-18.255c-16.502,8.275-34.931,10.154-52.477,4.077
			c-9.144-3.167-17.693-7.807-26.293-12.245c-23.688-12.224-48.643-21.516-75.5-14.963
			C138.866,176.865,115.475,195.016,102.594,218.234z"/>
		<g>
			<g>
				<g>
					<g style="opacity:0.75;">
						<path style="fill:#27B1BE;" d="M342.654,294.903c-0.511,0-1.005,0.075-1.469,0.218c-1.365-2.465-3.993-4.135-7.011-4.135
							c-2.469,0-4.675,1.118-6.144,2.875c-0.737-0.352-1.565-0.548-2.436-0.548c-3.139,0-5.688,2.545-5.688,5.684h6.257h5.115h6.366
							h4.541h5.479C347.191,296.661,345.132,294.903,342.654,294.903z"/>
					</g>
					<g>
						<path style="fill:#FFFFFF;" d="M339.748,294.903c-0.511,0-1.005,0.075-1.469,0.218c-1.365-2.465-3.993-4.135-7.011-4.135
							c-2.469,0-4.675,1.118-6.144,2.875c-0.737-0.352-1.565-0.548-2.436-0.548c-3.139,0-5.688,2.545-5.688,5.684h6.257h5.115h6.366
							h4.541h5.479C344.285,296.661,342.226,294.903,339.748,294.903z"/>
					</g>
				</g>
				<g>
					<g style="opacity:0.75;">
						<path style="fill:#27B1BE;" d="M393.395,228.446c-0.801,0-1.576,0.118-2.305,0.341c-2.141-3.868-6.265-6.489-11-6.489
							c-3.875,0-7.336,1.754-9.641,4.512c-1.156-0.552-2.456-0.86-3.822-0.86c-4.925,0-8.925,3.993-8.925,8.919h9.818h8.025h9.989
							h7.126h8.597C400.514,231.204,397.283,228.446,393.395,228.446z"/>
					</g>
					<g>
						<path style="fill:#FFFFFF;" d="M390.489,228.446c-0.801,0-1.576,0.118-2.305,0.341c-2.141-3.868-6.265-6.489-11-6.489
							c-3.875,0-7.336,1.754-9.641,4.512c-1.156-0.552-2.456-0.86-3.822-0.86c-4.925,0-8.925,3.993-8.925,8.919h9.818h8.025h9.989
							h7.126h8.597C397.608,231.204,394.377,228.446,390.489,228.446z"/>
					</g>
				</g>
				<g>
					<g>
						
							<path style="fill:none;stroke:#FFFFFF;stroke-width:2.0385;stroke-linecap:round;stroke-linejoin:round;stroke-miterlimit:10;stroke-dasharray:6.1156,6.1156;" d="
							M266.351,309.49c-43.976,18.861-104.155,34.475-142.52-4.765c-15.265-15.613-23.263-38.349-20.054-59.947
							c3.575-24.061,20.784-43.6,43.225-52.172c12.488-4.77,51.541-7.496,47.661,15.805c-1.635,9.818-18.034,11.337-22.735,1.564"/>
					</g>
					<g>
						
							<path style="fill:none;stroke:#27B1BE;stroke-width:2.0385;stroke-linecap:round;stroke-linejoin:round;stroke-miterlimit:10;stroke-dasharray:6.1156,6.1156;" d="
							M267.804,310.943c-43.976,18.861-104.155,34.475-142.52-4.765c-15.265-15.613-23.263-38.349-20.054-59.947
							c3.575-24.061,20.784-43.6,43.225-52.172c12.488-4.77,51.541-7.496,47.661,15.805c-1.635,9.818-18.034,11.337-22.735,1.564"/>
					</g>
				</g>
				<g>
					<g style="opacity:0.75;">
						<text transform="matrix(1 0 0 1 122.1465 271.6539)"><tspan x="0" y="0" style="fill:#FFFFFF; font-family:'NautilusPompilius'; font-size:55.0401px;">Travel </tspan><tspan x="28.424" y="29.063" style="fill:#FFFFFF; font-family:'Montserrat-SemiBold'; font-size:24.4622px; letter-spacing:2;">logo</tspan></text>
					</g>
					<g>
						<text transform="matrix(1 0 0 1 123.5996 273.107)"><tspan x="0" y="0" style="fill:#FF9D00; font-family:'NautilusPompilius'; font-size:55.0401px;">Travel </tspan><tspan x="28.424" y="29.063" style="fill:#FF5500; font-family:'Montserrat-SemiBold'; font-size:24.4622px; letter-spacing:2;">logo</tspan></text>
					</g>
				</g>
				<g>
					<g style="opacity:0.75;">
						<path style="fill:#27B1BE;" d="M240.192,221.969c-0.793,0-1.559,0.117-2.281,0.338c-2.118-3.827-6.199-6.42-10.884-6.42
							c-3.834,0-7.258,1.735-9.539,4.464c-1.143-0.546-2.43-0.851-3.782-0.851c-4.873,0-8.831,3.951-8.831,8.824h9.714h7.94h9.883
							h7.05h8.506C247.236,224.698,244.039,221.969,240.192,221.969z"/>
					</g>
					<g>
						<path style="fill:#FFFFFF;" d="M237.286,221.969c-0.793,0-1.56,0.117-2.281,0.338c-2.118-3.827-6.199-6.42-10.884-6.42
							c-3.834,0-7.258,1.735-9.539,4.464c-1.144-0.546-2.43-0.851-3.782-0.851c-4.873,0-8.831,3.951-8.831,8.824h9.714h7.94h9.883
							h7.05h8.506C244.33,224.698,241.133,221.969,237.286,221.969z"/>
					</g>
				</g>
				<g>
					<g style="opacity:0.65;">
						<polygon style="fill:#27B1BE;" points="391.996,301.85 381.253,303.781 320.677,265.893 316.099,263.027 309.323,258.788 
							302.163,254.314 303.039,253.849 318.597,245.59 335.317,236.716 340.229,242.363 349.43,252.934 354.494,258.755 
							372.751,279.737 377.815,285.559 						"/>
						<path style="fill:#27B1BE;" d="M350.205,264.858l-6.13-4.308l7.676-10.923c1.19-1.693,3.526-2.101,5.219-0.911l0,0
							c1.693,1.189,2.101,3.526,0.911,5.219L350.205,264.858z"/>
						<path style="fill:#27B1BE;" d="M374.746,289.931l-6.13-4.308l7.676-10.923c1.189-1.693,3.526-2.101,5.219-0.911l0,0
							c1.693,1.19,2.101,3.526,0.911,5.219L374.746,289.931z"/>
						<polygon style="fill:#27B1BE;" points="315.958,264.008 309.323,258.788 303.039,253.849 298.791,250.513 242.619,206.358 
							240.796,195.596 260.929,203.418 268.121,206.21 294.048,216.278 301.241,219.07 314.304,224.144 321.282,226.853 
							318.597,245.59 316.099,263.027 						"/>
						<path style="fill:#27B1BE;" d="M289.759,222.38l6.13,4.308l7.676-10.923c1.189-1.693,0.782-4.029-0.911-5.219l0,0
							c-1.693-1.189-4.029-0.782-5.219,0.911L289.759,222.38z"/>
						<path style="fill:#27B1BE;" d="M257.855,207.787l6.13,4.308l7.676-10.923c1.19-1.693,0.782-4.029-0.911-5.219l0,0
							c-1.693-1.19-4.029-0.782-5.219,0.911L257.855,207.787z"/>
						<polygon style="fill:#27B1BE;" points="292.574,317.385 282.203,296.972 293.189,281.34 304.441,300.498 						"/>
						<polygon style="fill:#27B1BE;" points="259.484,294.131 282.203,296.972 293.189,281.34 271.352,277.244 						"/>
						<path style="fill:#27B1BE;" d="M320.677,265.893c6.928-8.126,13.79-16.428,19.553-23.53l-4.913-5.646l-16.72,8.874
							l2.684-18.738l-6.977-2.709c-4.73,7.828-10.215,17.097-15.513,26.369L320.677,265.893z"/>
						<path style="fill:#27B1BE;" d="M352.748,221.999c-4.565,6.496-69.113,87.15-75.608,82.586
							c-6.496-4.565,47.517-92.623,52.082-99.118c4.565-6.496,13.534-8.061,20.03-3.497
							C355.747,206.534,357.313,215.503,352.748,221.999z"/>
						<path style="fill:#27B1BE;" d="M345.925,206.703c4.49,3.155,5.851,9.111,3.407,13.859c0.336-0.361,0.659-0.739,0.951-1.154
							c3.446-4.904,2.26-11.698-2.644-15.144c-4.904-3.446-11.698-2.261-15.144,2.644c-0.291,0.415-0.538,0.846-0.763,1.285
							C335.37,204.285,341.435,203.548,345.925,206.703z"/>
						<path style="fill:#27B1BE;" d="M334.079,239.537c1.222,0.568,2.543,0.319,2.951-0.557c0.407-0.876-0.254-2.047-1.476-2.615
							c-1.222-0.568-2.543-0.319-2.95,0.557C332.196,237.798,332.856,238.969,334.079,239.537z"/>
						<path style="fill:#27B1BE;" d="M328.592,246.091c1.222,0.568,2.543,0.319,2.951-0.557c0.407-0.876-0.254-2.047-1.476-2.615
							c-1.222-0.568-2.543-0.319-2.95,0.557C326.71,244.352,327.37,245.523,328.592,246.091z"/>
						<path style="fill:#27B1BE;" d="M323.106,252.645c1.222,0.568,2.543,0.319,2.951-0.557c0.407-0.876-0.254-2.047-1.476-2.615
							c-1.222-0.568-2.543-0.319-2.95,0.557C321.223,250.906,321.884,252.077,323.106,252.645z"/>
						<path style="fill:#27B1BE;" d="M317.62,259.199c1.222,0.568,2.543,0.319,2.951-0.557c0.407-0.876-0.254-2.047-1.476-2.615
							c-1.222-0.568-2.543-0.319-2.95,0.557C315.737,257.46,316.398,258.631,317.62,259.199z"/>
						<path style="fill:#27B1BE;" d="M312.91,264.862c1.222,0.568,2.543,0.319,2.951-0.557c0.407-0.876-0.254-2.047-1.476-2.615
							c-1.222-0.568-2.543-0.319-2.951,0.557C311.027,263.124,311.688,264.294,312.91,264.862z"/>
						<path style="fill:#27B1BE;" d="M307.424,271.417c1.222,0.568,2.543,0.319,2.951-0.557c0.407-0.876-0.254-2.047-1.476-2.615
							c-1.222-0.568-2.543-0.319-2.951,0.557C305.541,269.678,306.202,270.848,307.424,271.417z"/>
						<path style="fill:#27B1BE;" d="M301.938,277.971c1.222,0.568,2.543,0.319,2.95-0.557c0.407-0.876-0.254-2.047-1.476-2.615
							c-1.222-0.568-2.543-0.319-2.951,0.557C300.054,276.232,300.715,277.402,301.938,277.971z"/>
						<path style="opacity:0.3;fill:#27B1BE;" d="M349.252,201.969c-0.065-0.046-0.133-0.081-18.774,25.903
							c0,0-53.402,76.668-53.338,76.712c6.496,4.565,71.044-76.09,75.608-82.586C357.313,215.503,355.747,206.534,349.252,201.969z"
							/>
					</g>
					<g>
						<g>
							<g>
								<polygon style="fill:#B8E5EA;" points="389.089,301.85 378.346,303.781 317.77,265.893 313.193,263.027 306.416,258.788 
									299.257,254.314 300.132,253.849 315.691,245.59 332.411,236.716 337.323,242.363 346.524,252.934 351.587,258.755 
									369.844,279.737 374.908,285.559 								"/>
								<path style="fill:#B8E5EA;" d="M347.299,264.858l-6.13-4.308l7.676-10.923c1.189-1.693,3.526-2.101,5.219-0.911l0,0
									c1.693,1.189,2.101,3.526,0.911,5.219L347.299,264.858z"/>
								<path style="fill:#B8E5EA;" d="M371.84,289.931l-6.13-4.308l7.676-10.923c1.189-1.693,3.526-2.101,5.219-0.911l0,0
									c1.693,1.19,2.101,3.526,0.911,5.219L371.84,289.931z"/>
							</g>
							<g>
								<polygon style="fill:#B8E5EA;" points="313.052,264.008 306.416,258.788 300.132,253.849 295.885,250.513 239.713,206.358 
									237.889,195.596 258.022,203.418 265.215,206.21 291.142,216.278 298.335,219.07 311.398,224.144 318.375,226.853 
									315.691,245.59 313.193,263.027 								"/>
								<path style="fill:#B8E5EA;" d="M286.853,222.38l6.13,4.308l7.676-10.923c1.189-1.693,0.782-4.029-0.911-5.219l0,0
									c-1.693-1.189-4.029-0.782-5.219,0.911L286.853,222.38z"/>
								<path style="fill:#B8E5EA;" d="M254.949,207.787l6.13,4.308l7.676-10.923c1.19-1.693,0.782-4.029-0.911-5.219l0,0
									c-1.693-1.19-4.029-0.782-5.219,0.911L254.949,207.787z"/>
							</g>
							<g>
								<polygon style="fill:#B8E5EA;" points="289.668,317.385 279.297,296.972 290.283,281.34 301.535,300.498 								"/>
								<polygon style="fill:#B8E5EA;" points="256.578,294.131 279.297,296.972 290.283,281.34 268.445,277.244 								"/>
							</g>
							<path style="fill:#B8E5EA;" d="M317.77,265.893c6.928-8.126,13.79-16.428,19.553-23.53l-4.912-5.646l-16.72,8.874
								l2.684-18.738l-6.977-2.709c-4.73,7.828-10.215,17.097-15.513,26.369L317.77,265.893z"/>
							<path style="fill:#B8E5EA;" d="M349.842,221.999c-4.565,6.496-69.113,87.15-75.608,82.586
								c-6.496-4.565,47.517-92.623,52.082-99.118c4.565-6.496,13.534-8.061,20.03-3.497
								C352.841,206.534,354.407,215.503,349.842,221.999z"/>
							<g>
								<path style="fill:#00A371;" d="M343.019,206.703c4.49,3.155,5.851,9.111,3.407,13.859c0.336-0.361,0.659-0.739,0.951-1.154
									c3.446-4.904,2.26-11.698-2.644-15.144c-4.904-3.446-11.698-2.261-15.144,2.644c-0.291,0.415-0.538,0.846-0.763,1.285
									C332.464,204.285,338.529,203.548,343.019,206.703z"/>
							</g>
							<g>
								<path style="fill:#00A371;" d="M331.173,239.537c1.222,0.568,2.543,0.319,2.951-0.557c0.407-0.876-0.254-2.047-1.476-2.615
									c-1.222-0.568-2.543-0.319-2.95,0.557C329.29,237.798,329.95,238.969,331.173,239.537z"/>
							</g>
							<g>
								<path style="fill:#00A371;" d="M325.686,246.091c1.222,0.568,2.543,0.319,2.951-0.557c0.407-0.876-0.254-2.047-1.476-2.615
									c-1.222-0.568-2.543-0.319-2.95,0.557C323.803,244.352,324.464,245.523,325.686,246.091z"/>
							</g>
							<g>
								<path style="fill:#00A371;" d="M320.2,252.645c1.222,0.568,2.543,0.319,2.95-0.557c0.407-0.876-0.254-2.047-1.476-2.615
									c-1.222-0.568-2.543-0.319-2.95,0.557C318.317,250.906,318.978,252.077,320.2,252.645z"/>
							</g>
							<g>
								<path style="fill:#00A371;" d="M314.714,259.199c1.222,0.568,2.543,0.319,2.951-0.557s-0.254-2.047-1.476-2.615
									c-1.222-0.568-2.543-0.319-2.95,0.557C312.831,257.46,313.491,258.631,314.714,259.199z"/>
							</g>
							<g>
								<path style="fill:#00A371;" d="M310.004,264.862c1.222,0.568,2.543,0.319,2.951-0.557c0.407-0.876-0.254-2.047-1.476-2.615
									c-1.222-0.568-2.543-0.319-2.951,0.557C308.121,263.124,308.782,264.294,310.004,264.862z"/>
							</g>
							<g>
								<path style="fill:#00A371;" d="M304.518,271.417c1.222,0.568,2.543,0.319,2.951-0.557c0.407-0.876-0.254-2.047-1.476-2.615
									c-1.222-0.568-2.543-0.319-2.951,0.557C302.635,269.678,303.295,270.848,304.518,271.417z"/>
							</g>
							<g>
								<path style="fill:#00A371;" d="M299.031,277.971c1.222,0.568,2.543,0.319,2.95-0.557c0.407-0.876-0.253-2.047-1.476-2.615
									c-1.222-0.568-2.543-0.319-2.951,0.557C297.148,276.232,297.809,277.402,299.031,277.971z"/>
							</g>
							<path style="opacity:0.3;fill:#FFFFFF;" d="M346.346,201.969c-0.065-0.046-0.133-0.081-18.774,25.903
								c0,0-53.401,76.668-53.338,76.712c6.496,4.565,71.044-76.09,75.608-82.586C354.407,215.503,352.841,206.534,346.346,201.969z
								"/>
						</g>
					</g>
				</g>
			</g>
			<g>
				<g>
					<path style="fill:#FFFFFF;" d="M166.776,155.987c-7.41,0-13.418,6.007-13.418,13.417c0,7.41,13.418,29.373,13.418,29.373
						s13.417-21.963,13.417-29.373C180.193,161.994,174.186,155.987,166.776,155.987z M166.776,177.2
						c-4.305,0-7.796-3.49-7.796-7.796c0-4.305,3.49-7.796,7.796-7.796c4.305,0,7.796,3.49,7.796,7.796
						C174.571,173.71,171.081,177.2,166.776,177.2z"/>
				</g>
				<g>
					<g>
						<path style="fill:#00A371;" d="M168.229,157.44c-7.41,0-13.418,6.007-13.418,13.417c0,7.41,13.418,29.373,13.418,29.373
							s13.417-21.963,13.417-29.373C181.646,163.447,175.639,157.44,168.229,157.44z M168.229,178.653
							c-4.305,0-7.796-3.49-7.796-7.796c0-4.305,3.49-7.796,7.796-7.796c4.305,0,7.796,3.49,7.796,7.796
							C176.024,175.163,172.534,178.653,168.229,178.653z"/>
					</g>
				</g>
			</g>
			<g>
				<g>
					<path style="fill:#FFFFFF;" d="M169.941,206.589c0,1.748-1.417,3.166-3.166,3.166c-1.748,0-3.166-1.417-3.166-3.166
						c0-1.748,1.417-3.166,3.166-3.166C168.524,203.423,169.941,204.841,169.941,206.589z"/>
				</g>
				<g>
					<path style="fill:#00A371;" d="M171.394,208.042c0,1.748-1.417,3.166-3.165,3.166c-1.748,0-3.166-1.417-3.166-3.166
						s1.417-3.166,3.166-3.166C169.977,204.876,171.394,206.294,171.394,208.042z"/>
				</g>
			</g>
		</g>
		<path style="fill:#EAF0F4;" d="M318.305,320.338c1.698-0.791,6.339-2.751,12.326-2.173c0.922,0.089,5.315,0.513,5.368,1.629
			c0.068,1.418-7.041,0.328-14.314,6.246c-4.208,3.424-5.832,7.047-9.742,7.061c-1.98,0.007-4.695-0.91-4.97-2.716
			C306.481,327.164,313.95,322.366,318.305,320.338z"/>
	</g>
</g>
</svg>
